<?xml version="1.0" encoding="UTF-8"?>
<svg width="100%" height="100%" viewBox="0 0 64 64" fill="none" xmlns="http://www.w3.org/2000/svg" preserveAspectRatio="xMidYMid meet">
  <defs>
    <linearGradient id="darkBg" x1="6" y1="6" x2="58" y2="58" gradientUnits="userSpaceOnUse">
      <stop stop-color="#10233A"/>
      <stop offset="1" stop-color="#1D3C60"/>
    </linearGradient>
    <linearGradient id="tileIdle" x1="0" y1="0" x2="1" y2="1">
      <stop stop-color="#6D819B"/>
      <stop offset="1" stop-color="#5B6E86"/>
    </linearGradient>
  </defs>

  <rect x="2" y="2" width="60" height="60" rx="12" fill="url(#darkBg)" stroke="#4D6F95" stroke-width="2"/>

  <rect x="11" y="11" width="12" height="12" rx="3" fill="url(#tileIdle)"/>
  <rect x="26" y="11" width="12" height="12" rx="3" fill="#7B8FA8"/>
  <rect x="41" y="11" width="12" height="12" rx="3" fill="url(#tileIdle)"/>

  <rect x="11" y="26" width="12" height="12" rx="3" fill="url(#tileIdle)"/>
  <rect x="26" y="26" width="12" height="12" rx="3" fill="#68C377"/>
  <rect x="41" y="26" width="12" height="12" rx="3" fill="url(#tileIdle)"/>

  <rect x="11" y="41" width="12" height="12" rx="3" fill="url(#tileIdle)"/>
  <rect x="26" y="41" width="12" height="12" rx="3" fill="#F1CC62"/>
  <rect x="41" y="41" width="12" height="12" rx="3" fill="#FF6B6B"/>
</svg>
